{
	"asset":{
		"generator":"Khronos glTF Blender I/O v3.6.28",
		"version":"2.0"
	},
	"extensionsUsed":[
		"KHR_materials_specular",
		"KHR_materials_ior"
	],
	"scene":0,
	"scenes":[
		{
			"name":"Scene",
			"nodes":[
				4
			]
		}
	],
	"nodes":[
		{
			"name":"Bone",
			"translation":[
				1.4350337982177734,
				1.3230810165405273,
				-1.777676317260557e-07
			]
		},
		{
			"name":"Bone.001",
			"translation":[
				-1.4859216213226318,
				1.3230810165405273,
				-1.777676317260557e-07
			]
		},
		{
			"mesh":0,
			"name":"door_left",
			"skin":0
		},
		{
			"mesh":1,
			"name":"door_right",
			"skin":0
		},
		{
			"children":[
				2,
				3,
				0,
				1
			],
			"name":"Armature"
		}
	],
	"animations":[
		{
			"channels":[
				{
					"sampler":0,
					"target":{
						"node":0,
						"path":"translation"
					}
				},
				{
					"sampler":1,
					"target":{
						"node":0,
						"path":"rotation"
					}
				},
				{
					"sampler":2,
					"target":{
						"node":0,
						"path":"scale"
					}
				},
				{
					"sampler":3,
					"target":{
						"node":1,
						"path":"translation"
					}
				},
				{
					"sampler":4,
					"target":{
						"node":1,
						"path":"rotation"
					}
				},
				{
					"sampler":5,
					"target":{
						"node":1,
						"path":"scale"
					}
				}
			],
			"name":"ArmatureAction",
			"samplers":[
				{
					"input":13,
					"interpolation":"LINEAR",
					"output":14
				},
				{
					"input":15,
					"interpolation":"STEP",
					"output":16
				},
				{
					"input":15,
					"interpolation":"STEP",
					"output":17
				},
				{
					"input":13,
					"interpolation":"LINEAR",
					"output":18
				},
				{
					"input":15,
					"interpolation":"STEP",
					"output":19
				},
				{
					"input":15,
					"interpolation":"STEP",
					"output":20
				}
			]
		}
	],
	"materials":[
		{
			"extensions":{
				"KHR_materials_specular":{
					"specularColorFactor":[
						0.13473624094270928,
						0.13473624094270928,
						0.13473624094270928
					]
				},
				"KHR_materials_ior":{
					"ior":1.4500000476837158
				}
			},
			"name":"colorAtlas",
			"pbrMetallicRoughness":{
				"baseColorTexture":{
					"index":0
				},
				"metallicFactor":0,
				"roughnessFactor":0.5
			}
		}
	],
	"meshes":[
		{
			"name":"Plane.002",
			"primitives":[
				{
					"attributes":{
						"POSITION":0,
						"NORMAL":1,
						"TEXCOORD_0":2,
						"JOINTS_0":3,
						"WEIGHTS_0":4
					},
					"indices":5,
					"material":0
				}
			]
		},
		{
			"name":"Plane.010",
			"primitives":[
				{
					"attributes":{
						"POSITION":7,
						"NORMAL":8,
						"TEXCOORD_0":9,
						"JOINTS_0":10,
						"WEIGHTS_0":11
					},
					"indices":12,
					"material":0
				}
			]
		}
	],
	"textures":[
		{
			"sampler":0,
			"source":0
		}
	],
	"images":[
		{
			"bufferView":6,
			"mimeType":"image/png",
			"name":"color_atlas"
		}
	],
	"skins":[
		{
			"inverseBindMatrices":6,
			"joints":[
				0,
				1
			],
			"name":"Armature"
		}
	],
	"accessors":[
		{
			"bufferView":0,
			"componentType":5126,
			"count":674,
			"max":[
				-0.0013786554336547852,
				3.49914288520813,
				0.14698314666748047
			],
			"min":[
				-1.6109180450439453,
				-0.006490468978881836,
				-0.14698314666748047
			],
			"type":"VEC3"
		},
		{
			"bufferView":1,
			"componentType":5126,
			"count":674,
			"type":"VEC3"
		},
		{
			"bufferView":2,
			"componentType":5126,
			"count":674,
			"type":"VEC2"
		},
		{
			"bufferView":3,
			"componentType":5121,
			"count":674,
			"type":"VEC4"
		},
		{
			"bufferView":4,
			"componentType":5126,
			"count":674,
			"type":"VEC4"
		},
		{
			"bufferView":5,
			"componentType":5123,
			"count":1236,
			"type":"SCALAR"
		},
		{
			"bufferView":7,
			"componentType":5126,
			"count":2,
			"type":"MAT4"
		},
		{
			"bufferView":8,
			"componentType":5126,
			"count":674,
			"max":[
				1.6105320453643799,
				3.49914288520813,
				0.14698314666748047
			],
			"min":[
				0.0009928345680236816,
				-0.006490468978881836,
				-0.14698314666748047
			],
			"type":"VEC3"
		},
		{
			"bufferView":9,
			"componentType":5126,
			"count":674,
			"type":"VEC3"
		},
		{
			"bufferView":10,
			"componentType":5126,
			"count":674,
			"type":"VEC2"
		},
		{
			"bufferView":11,
			"componentType":5121,
			"count":674,
			"type":"VEC4"
		},
		{
			"bufferView":12,
			"componentType":5126,
			"count":674,
			"type":"VEC4"
		},
		{
			"bufferView":13,
			"componentType":5123,
			"count":1236,
			"type":"SCALAR"
		},
		{
			"bufferView":14,
			"componentType":5126,
			"count":24,
			"max":[
				0.8
			],
			"min":[
				0.03333333333333333
			],
			"type":"SCALAR"
		},
		{
			"bufferView":15,
			"componentType":5126,
			"count":24,
			"type":"VEC3"
		},
		{
			"bufferView":16,
			"componentType":5126,
			"count":2,
			"max":[
				0.8
			],
			"min":[
				0.03333333333333333
			],
			"type":"SCALAR"
		},
		{
			"bufferView":17,
			"componentType":5126,
			"count":2,
			"type":"VEC4"
		},
		{
			"bufferView":18,
			"componentType":5126,
			"count":2,
			"type":"VEC3"
		},
		{
			"bufferView":19,
			"componentType":5126,
			"count":24,
			"type":"VEC3"
		},
		{
			"bufferView":20,
			"componentType":5126,
			"count":2,
			"type":"VEC4"
		},
		{
			"bufferView":21,
			"componentType":5126,
			"count":2,
			"type":"VEC3"
		}
	],
	"bufferViews":[
		{
			"buffer":0,
			"byteLength":8088,
			"byteOffset":0,
			"target":34962
		},
		{
			"buffer":0,
			"byteLength":8088,
			"byteOffset":8088,
			"target":34962
		},
		{
			"buffer":0,
			"byteLength":5392,
			"byteOffset":16176,
			"target":34962
		},
		{
			"buffer":0,
			"byteLength":2696,
			"byteOffset":21568,
			"target":34962
		},
		{
			"buffer":0,
			"byteLength":10784,
			"byteOffset":24264,
			"target":34962
		},
		{
			"buffer":0,
			"byteLength":2472,
			"byteOffset":35048,
			"target":34963
		},
		{
			"buffer":0,
			"byteLength":8663,
			"byteOffset":37520
		},
		{
			"buffer":0,
			"byteLength":128,
			"byteOffset":46184
		},
		{
			"buffer":0,
			"byteLength":8088,
			"byteOffset":46312,
			"target":34962
		},
		{
			"buffer":0,
			"byteLength":8088,
			"byteOffset":54400,
			"target":34962
		},
		{
			"buffer":0,
			"byteLength":5392,
			"byteOffset":62488,
			"target":34962
		},
		{
			"buffer":0,
			"byteLength":2696,
			"byteOffset":67880,
			"target":34962
		},
		{
			"buffer":0,
			"byteLength":10784,
			"byteOffset":70576,
			"target":34962
		},
		{
			"buffer":0,
			"byteLength":2472,
			"byteOffset":81360,
			"target":34963
		},
		{
			"buffer":0,
			"byteLength":96,
			"byteOffset":83832
		},
		{
			"buffer":0,
			"byteLength":288,
			"byteOffset":83928
		},
		{
			"buffer":0,
			"byteLength":8,
			"byteOffset":84216
		},
		{
			"buffer":0,
			"byteLength":32,
			"byteOffset":84224
		},
		{
			"buffer":0,
			"byteLength":24,
			"byteOffset":84256
		},
		{
			"buffer":0,
			"byteLength":288,
			"byteOffset":84280
		},
		{
			"buffer":0,
			"byteLength":32,
			"byteOffset":84568
		},
		{
			"buffer":0,
			"byteLength":24,
			"byteOffset":84600
		}
	],
	"samplers":[
		{
			"magFilter":9728,
			"minFilter":9984
		}
	],
	"buffers":[
		{
			"byteLength":84624,
			"uri":"data:application/octet-stream;base64,"
		}
	]
}
