{
	"asset":{
		"generator":"Khronos glTF Blender I/O v3.6.28",
		"version":"2.0"
	},
	"scene":0,
	"scenes":[
		{
			"name":"Scene",
			"nodes":[
				4
			]
		}
	],
	"nodes":[
		{
			"name":"Bone",
			"translation":[
				0,
				-1.3905773162841797,
				0
			]
		},
		{
			"name":"Bone.001",
			"translation":[
				0,
				0.21375179290771484,
				0
			]
		},
		{
			"mesh":0,
			"name":"bottom",
			"skin":0
		},
		{
			"mesh":1,
			"name":"top",
			"skin":0
		},
		{
			"children":[
				2,
				3,
				0,
				1
			],
			"name":"door_normal",
			"translation":[
				-0.024235650897026062,
				1.6732478141784668,
				0
			]
		}
	],
	"animations":[
		{
			"channels":[
				{
					"sampler":0,
					"target":{
						"node":0,
						"path":"translation"
					}
				},
				{
					"sampler":1,
					"target":{
						"node":0,
						"path":"rotation"
					}
				},
				{
					"sampler":2,
					"target":{
						"node":0,
						"path":"scale"
					}
				},
				{
					"sampler":3,
					"target":{
						"node":1,
						"path":"translation"
					}
				},
				{
					"sampler":4,
					"target":{
						"node":1,
						"path":"rotation"
					}
				},
				{
					"sampler":5,
					"target":{
						"node":1,
						"path":"scale"
					}
				}
			],
			"name":"door_open",
			"samplers":[
				{
					"input":13,
					"interpolation":"LINEAR",
					"output":14
				},
				{
					"input":15,
					"interpolation":"STEP",
					"output":16
				},
				{
					"input":15,
					"interpolation":"STEP",
					"output":17
				},
				{
					"input":13,
					"interpolation":"LINEAR",
					"output":18
				},
				{
					"input":15,
					"interpolation":"STEP",
					"output":19
				},
				{
					"input":15,
					"interpolation":"STEP",
					"output":20
				}
			]
		}
	],
	"materials":[
		{
			"doubleSided":true,
			"name":"colorAtlas",
			"pbrMetallicRoughness":{
				"baseColorTexture":{
					"index":0
				},
				"metallicFactor":0,
				"roughnessFactor":0.5
			}
		}
	],
	"meshes":[
		{
			"name":"Plane.007",
			"primitives":[
				{
					"attributes":{
						"POSITION":0,
						"NORMAL":1,
						"TEXCOORD_0":2,
						"JOINTS_0":3,
						"WEIGHTS_0":4
					},
					"indices":5,
					"material":0
				}
			]
		},
		{
			"name":"Plane.001",
			"primitives":[
				{
					"attributes":{
						"POSITION":7,
						"NORMAL":8,
						"TEXCOORD_0":9,
						"JOINTS_0":10,
						"WEIGHTS_0":11
					},
					"indices":12,
					"material":0
				}
			]
		}
	],
	"textures":[
		{
			"sampler":0,
			"source":0
		}
	],
	"images":[
		{
			"bufferView":6,
			"mimeType":"image/png",
			"name":"color_atlas"
		}
	],
	"skins":[
		{
			"inverseBindMatrices":6,
			"joints":[
				0,
				1
			],
			"name":"door_normal"
		}
	],
	"accessors":[
		{
			"bufferView":0,
			"componentType":5126,
			"count":276,
			"max":[
				0.06179666519165039,
				1.6711759567260742,
				1.2215667963027954
			],
			"min":[
				-0.06179618835449219,
				0.02904808521270752,
				-1.2215667963027954
			],
			"type":"VEC3"
		},
		{
			"bufferView":1,
			"componentType":5126,
			"count":276,
			"type":"VEC3"
		},
		{
			"bufferView":2,
			"componentType":5126,
			"count":276,
			"type":"VEC2"
		},
		{
			"bufferView":3,
			"componentType":5121,
			"count":276,
			"type":"VEC4"
		},
		{
			"bufferView":4,
			"componentType":5126,
			"count":276,
			"type":"VEC4"
		},
		{
			"bufferView":5,
			"componentType":5123,
			"count":540,
			"type":"SCALAR"
		},
		{
			"bufferView":7,
			"componentType":5126,
			"count":2,
			"type":"MAT4"
		},
		{
			"bufferView":8,
			"componentType":5126,
			"count":768,
			"max":[
				0.06179666519165039,
				3.3174476623535156,
				1.2215667963027954
			],
			"min":[
				-0.06179618835449219,
				1.359755277633667,
				-1.2215667963027954
			],
			"type":"VEC3"
		},
		{
			"bufferView":9,
			"componentType":5126,
			"count":768,
			"type":"VEC3"
		},
		{
			"bufferView":10,
			"componentType":5126,
			"count":768,
			"type":"VEC2"
		},
		{
			"bufferView":11,
			"componentType":5121,
			"count":768,
			"type":"VEC4"
		},
		{
			"bufferView":12,
			"componentType":5126,
			"count":768,
			"type":"VEC4"
		},
		{
			"bufferView":13,
			"componentType":5123,
			"count":1644,
			"type":"SCALAR"
		},
		{
			"bufferView":14,
			"componentType":5126,
			"count":48,
			"max":[
				1.6
			],
			"min":[
				0.03333333333333333
			],
			"type":"SCALAR"
		},
		{
			"bufferView":15,
			"componentType":5126,
			"count":48,
			"type":"VEC3"
		},
		{
			"bufferView":16,
			"componentType":5126,
			"count":2,
			"max":[
				1.6
			],
			"min":[
				0.03333333333333333
			],
			"type":"SCALAR"
		},
		{
			"bufferView":17,
			"componentType":5126,
			"count":2,
			"type":"VEC4"
		},
		{
			"bufferView":18,
			"componentType":5126,
			"count":2,
			"type":"VEC3"
		},
		{
			"bufferView":19,
			"componentType":5126,
			"count":48,
			"type":"VEC3"
		},
		{
			"bufferView":20,
			"componentType":5126,
			"count":2,
			"type":"VEC4"
		},
		{
			"bufferView":21,
			"componentType":5126,
			"count":2,
			"type":"VEC3"
		}
	],
	"bufferViews":[
		{
			"buffer":0,
			"byteLength":3312,
			"byteOffset":0,
			"target":34962
		},
		{
			"buffer":0,
			"byteLength":3312,
			"byteOffset":3312,
			"target":34962
		},
		{
			"buffer":0,
			"byteLength":2208,
			"byteOffset":6624,
			"target":34962
		},
		{
			"buffer":0,
			"byteLength":1104,
			"byteOffset":8832,
			"target":34962
		},
		{
			"buffer":0,
			"byteLength":4416,
			"byteOffset":9936,
			"target":34962
		},
		{
			"buffer":0,
			"byteLength":1080,
			"byteOffset":14352,
			"target":34963
		},
		{
			"buffer":0,
			"byteLength":8663,
			"byteOffset":15432
		},
		{
			"buffer":0,
			"byteLength":128,
			"byteOffset":24096
		},
		{
			"buffer":0,
			"byteLength":9216,
			"byteOffset":24224,
			"target":34962
		},
		{
			"buffer":0,
			"byteLength":9216,
			"byteOffset":33440,
			"target":34962
		},
		{
			"buffer":0,
			"byteLength":6144,
			"byteOffset":42656,
			"target":34962
		},
		{
			"buffer":0,
			"byteLength":3072,
			"byteOffset":48800,
			"target":34962
		},
		{
			"buffer":0,
			"byteLength":12288,
			"byteOffset":51872,
			"target":34962
		},
		{
			"buffer":0,
			"byteLength":3288,
			"byteOffset":64160,
			"target":34963
		},
		{
			"buffer":0,
			"byteLength":192,
			"byteOffset":67448
		},
		{
			"buffer":0,
			"byteLength":576,
			"byteOffset":67640
		},
		{
			"buffer":0,
			"byteLength":8,
			"byteOffset":68216
		},
		{
			"buffer":0,
			"byteLength":32,
			"byteOffset":68224
		},
		{
			"buffer":0,
			"byteLength":24,
			"byteOffset":68256
		},
		{
			"buffer":0,
			"byteLength":576,
			"byteOffset":68280
		},
		{
			"buffer":0,
			"byteLength":32,
			"byteOffset":68856
		},
		{
			"buffer":0,
			"byteLength":24,
			"byteOffset":68888
		}
	],
	"samplers":[
		{
			"magFilter":9728,
			"minFilter":9984
		}
	],
	"buffers":[
		{
			"byteLength":68912,
			"uri":"data:application/octet-stream;base64,"
		}
	]
}
