{
	"asset":{
		"generator":"Khronos glTF Blender I/O v3.6.28",
		"version":"2.0"
	},
	"extensionsUsed":[
		"KHR_materials_specular",
		"KHR_materials_ior"
	],
	"scene":0,
	"scenes":[
		{
			"name":"Scene",
			"nodes":[
				0,
				1,
				2,
				3,
				4
			]
		}
	],
	"nodes":[
		{
			"mesh":0,
			"name":"collision",
			"rotation":[
				1,
				0,
				0,
				0
			],
			"scale":[
				-1,
				-1,
				-1
			],
			"translation":[
				-0.5467991828918457,
				0,
				-2.393583297729492
			]
		},
		{
			"mesh":1,
			"name":"test_Dummys.001",
			"rotation":[
				0,
				-0.737277626991272,
				0,
				0.6755898594856262
			],
			"scale":[
				1.4317326545715332,
				1.4317326545715332,
				1.4317326545715332
			],
			"translation":[
				31.745973587036133,
				0,
				-13.520635604858398
			]
		},
		{
			"mesh":2,
			"name":"home",
			"translation":[
				0,
				5.68472957611084,
				-3.5946388244628906
			]
		},
		{
			"mesh":3,
			"name":"call",
			"translation":[
				0,
				5.68472957611084,
				-3.5946388244628906
			]
		},
		{
			"mesh":4,
			"name":"posters",
			"translation":[
				0,
				5.68472957611084,
				-3.5946388244628906
			]
		}
	],
	"materials":[
		{
			"name":"collision",
			"pbrMetallicRoughness":{
				"baseColorFactor":[
					0.800000011920929,
					0.800000011920929,
					0.800000011920929,
					1
				],
				"metallicFactor":0,
				"roughnessFactor":0.5
			}
		},
		{
			"extensions":{
				"KHR_materials_specular":{
					"specularColorFactor":[
						0.13473624094270928,
						0.13473624094270928,
						0.13473624094270928
					]
				},
				"KHR_materials_ior":{
					"ior":1.4500000476837158
				}
			},
			"name":"colorAtlas",
			"pbrMetallicRoughness":{
				"baseColorTexture":{
					"index":0
				},
				"metallicFactor":0,
				"roughnessFactor":0.5
			}
		},
		{
			"extensions":{
				"KHR_materials_specular":{
					"specularColorFactor":[
						0.13473624094270928,
						0.13473624094270928,
						0.13473624094270928
					]
				},
				"KHR_materials_ior":{
					"ior":1.4500000476837158
				}
			},
			"name":"colorAtlas",
			"pbrMetallicRoughness":{
				"baseColorTexture":{
					"index":1
				},
				"metallicFactor":0,
				"roughnessFactor":0.5
			}
		},
		{
			"name":"light",
			"pbrMetallicRoughness":{
				"baseColorFactor":[
					0.800000011920929,
					0.800000011920929,
					0.800000011920929,
					1
				],
				"metallicFactor":0,
				"roughnessFactor":0.5
			}
		},
		{
			"name":"poster0",
			"pbrMetallicRoughness":{
				"baseColorTexture":{
					"index":2
				},
				"metallicFactor":0,
				"roughnessFactor":0.5
			}
		},
		{
			"doubleSided":true,
			"name":"poster1",
			"pbrMetallicRoughness":{
				"baseColorTexture":{
					"index":3
				},
				"metallicFactor":0,
				"roughnessFactor":0.5
			}
		}
	],
	"meshes":[
		{
			"name":"Plane",
			"primitives":[
				{
					"attributes":{
						"POSITION":0,
						"NORMAL":1,
						"TEXCOORD_0":2
					},
					"indices":3,
					"material":0
				}
			]
		},
		{
			"name":"Cube_Cube.001",
			"primitives":[
				{
					"attributes":{
						"POSITION":4,
						"NORMAL":5,
						"TEXCOORD_0":6
					},
					"indices":7,
					"material":1
				}
			]
		},
		{
			"name":"Plane.003",
			"primitives":[
				{
					"attributes":{
						"POSITION":8,
						"NORMAL":9,
						"TEXCOORD_0":10
					},
					"indices":11,
					"material":2
				},
				{
					"attributes":{
						"POSITION":12,
						"NORMAL":13,
						"TEXCOORD_0":14
					},
					"indices":15,
					"material":3
				}
			]
		},
		{
			"name":"Plane.002",
			"primitives":[
				{
					"attributes":{
						"POSITION":16,
						"NORMAL":17,
						"TEXCOORD_0":18
					},
					"indices":19,
					"material":2
				}
			]
		},
		{
			"name":"Plane.001",
			"primitives":[
				{
					"attributes":{
						"POSITION":20,
						"NORMAL":21,
						"TEXCOORD_0":22
					},
					"indices":23,
					"material":4
				},
				{
					"attributes":{
						"POSITION":24,
						"NORMAL":25,
						"TEXCOORD_0":26
					},
					"indices":23,
					"material":5
				}
			]
		}
	],
	"textures":[
		{
			"sampler":0,
			"source":0
		},
		{
			"sampler":0,
			"source":0
		},
		{
			"sampler":0,
			"source":1
		},
		{
			"sampler":1,
			"source":2
		}
	],
	"images":[
		{
			"bufferView":8,
			"mimeType":"image/png",
			"name":"color_atlas"
		},
		{
			"bufferView":25,
			"mimeType":"image/png",
			"name":"pipboy"
		},
		{
			"bufferView":29,
			"mimeType":"image/png",
			"name":"tardisInside"
		}
	],
	"accessors":[
		{
			"bufferView":0,
			"componentType":5126,
			"count":530,
			"max":[
				4.0902099609375,
				5.857165336608887,
				17.56930923461914
			],
			"min":[
				-35.6194953918457,
				0,
				-19.971420288085938
			],
			"type":"VEC3"
		},
		{
			"bufferView":1,
			"componentType":5126,
			"count":530,
			"type":"VEC3"
		},
		{
			"bufferView":2,
			"componentType":5126,
			"count":530,
			"type":"VEC2"
		},
		{
			"bufferView":3,
			"componentType":5123,
			"count":1089,
			"type":"SCALAR"
		},
		{
			"bufferView":4,
			"componentType":5126,
			"count":492,
			"max":[
				0.9198020100593567,
				2.4485244750976562,
				0.6691814661026001
			],
			"min":[
				-0.8648414611816406,
				-5.960464477539062e-07,
				-0.08332677185535431
			],
			"type":"VEC3"
		},
		{
			"bufferView":5,
			"componentType":5126,
			"count":492,
			"type":"VEC3"
		},
		{
			"bufferView":6,
			"componentType":5126,
			"count":492,
			"type":"VEC2"
		},
		{
			"bufferView":7,
			"componentType":5123,
			"count":2580,
			"type":"SCALAR"
		},
		{
			"bufferView":9,
			"componentType":5126,
			"count":10150,
			"max":[
				35.072696685791016,
				1.0368051528930664,
				18.77036476135254
			],
			"min":[
				-35.072696685791016,
				-9.682893753051758,
				-18.77036476135254
			],
			"type":"VEC3"
		},
		{
			"bufferView":10,
			"componentType":5126,
			"count":10150,
			"type":"VEC3"
		},
		{
			"bufferView":11,
			"componentType":5126,
			"count":10150,
			"type":"VEC2"
		},
		{
			"bufferView":12,
			"componentType":5123,
			"count":19200,
			"type":"SCALAR"
		},
		{
			"bufferView":13,
			"componentType":5126,
			"count":144,
			"max":[
				34.26951217651367,
				0.12512026727199554,
				11.11062240600586
			],
			"min":[
				-34.26951217651367,
				-0.7323373556137085,
				-11.11062240600586
			],
			"type":"VEC3"
		},
		{
			"bufferView":14,
			"componentType":5126,
			"count":144,
			"type":"VEC3"
		},
		{
			"bufferView":15,
			"componentType":5126,
			"count":144,
			"type":"VEC2"
		},
		{
			"bufferView":16,
			"componentType":5123,
			"count":348,
			"type":"SCALAR"
		},
		{
			"bufferView":17,
			"componentType":5126,
			"count":252,
			"max":[
				4.639161586761475,
				-2.8374955654144287,
				-1.3786672353744507
			],
			"min":[
				-4.639161586761475,
				-3.961028575897217,
				-1.8770301342010498
			],
			"type":"VEC3"
		},
		{
			"bufferView":18,
			"componentType":5126,
			"count":252,
			"type":"VEC3"
		},
		{
			"bufferView":19,
			"componentType":5126,
			"count":252,
			"type":"VEC2"
		},
		{
			"bufferView":20,
			"componentType":5123,
			"count":456,
			"type":"SCALAR"
		},
		{
			"bufferView":21,
			"componentType":5126,
			"count":16,
			"max":[
				4.367273330688477,
				-2.437659740447998,
				4.899056434631348
			],
			"min":[
				-4.367273330688477,
				-5.168150901794434,
				-4.899056434631348
			],
			"type":"VEC3"
		},
		{
			"bufferView":22,
			"componentType":5126,
			"count":16,
			"type":"VEC3"
		},
		{
			"bufferView":23,
			"componentType":5126,
			"count":16,
			"type":"VEC2"
		},
		{
			"bufferView":24,
			"componentType":5123,
			"count":24,
			"type":"SCALAR"
		},
		{
			"bufferView":26,
			"componentType":5126,
			"count":16,
			"max":[
				4.367273330688477,
				-2.437659740447998,
				9.048823356628418
			],
			"min":[
				-4.367273330688477,
				-5.168150901794434,
				-9.048823356628418
			],
			"type":"VEC3"
		},
		{
			"bufferView":27,
			"componentType":5126,
			"count":16,
			"type":"VEC3"
		},
		{
			"bufferView":28,
			"componentType":5126,
			"count":16,
			"type":"VEC2"
		}
	],
	"bufferViews":[
		{
			"buffer":0,
			"byteLength":6360,
			"byteOffset":0,
			"target":34962
		},
		{
			"buffer":0,
			"byteLength":6360,
			"byteOffset":6360,
			"target":34962
		},
		{
			"buffer":0,
			"byteLength":4240,
			"byteOffset":12720,
			"target":34962
		},
		{
			"buffer":0,
			"byteLength":2178,
			"byteOffset":16960,
			"target":34963
		},
		{
			"buffer":0,
			"byteLength":5904,
			"byteOffset":19140,
			"target":34962
		},
		{
			"buffer":0,
			"byteLength":5904,
			"byteOffset":25044,
			"target":34962
		},
		{
			"buffer":0,
			"byteLength":3936,
			"byteOffset":30948,
			"target":34962
		},
		{
			"buffer":0,
			"byteLength":5160,
			"byteOffset":34884,
			"target":34963
		},
		{
			"buffer":0,
			"byteLength":8663,
			"byteOffset":40044
		},
		{
			"buffer":0,
			"byteLength":121800,
			"byteOffset":48708,
			"target":34962
		},
		{
			"buffer":0,
			"byteLength":121800,
			"byteOffset":170508,
			"target":34962
		},
		{
			"buffer":0,
			"byteLength":81200,
			"byteOffset":292308,
			"target":34962
		},
		{
			"buffer":0,
			"byteLength":38400,
			"byteOffset":373508,
			"target":34963
		},
		{
			"buffer":0,
			"byteLength":1728,
			"byteOffset":411908,
			"target":34962
		},
		{
			"buffer":0,
			"byteLength":1728,
			"byteOffset":413636,
			"target":34962
		},
		{
			"buffer":0,
			"byteLength":1152,
			"byteOffset":415364,
			"target":34962
		},
		{
			"buffer":0,
			"byteLength":696,
			"byteOffset":416516,
			"target":34963
		},
		{
			"buffer":0,
			"byteLength":3024,
			"byteOffset":417212,
			"target":34962
		},
		{
			"buffer":0,
			"byteLength":3024,
			"byteOffset":420236,
			"target":34962
		},
		{
			"buffer":0,
			"byteLength":2016,
			"byteOffset":423260,
			"target":34962
		},
		{
			"buffer":0,
			"byteLength":912,
			"byteOffset":425276,
			"target":34963
		},
		{
			"buffer":0,
			"byteLength":192,
			"byteOffset":426188,
			"target":34962
		},
		{
			"buffer":0,
			"byteLength":192,
			"byteOffset":426380,
			"target":34962
		},
		{
			"buffer":0,
			"byteLength":128,
			"byteOffset":426572,
			"target":34962
		},
		{
			"buffer":0,
			"byteLength":48,
			"byteOffset":426700,
			"target":34963
		},
		{
			"buffer":0,
			"byteLength":7890,
			"byteOffset":426748
		},
		{
			"buffer":0,
			"byteLength":192,
			"byteOffset":434640,
			"target":34962
		},
		{
			"buffer":0,
			"byteLength":192,
			"byteOffset":434832,
			"target":34962
		},
		{
			"buffer":0,
			"byteLength":128,
			"byteOffset":435024,
			"target":34962
		},
		{
			"buffer":0,
			"byteLength":1767622,
			"byteOffset":435152
		}
	],
	"samplers":[
		{
			"magFilter":9728,
			"minFilter":9984
		},
		{
			"magFilter":9729,
			"minFilter":9987
		}
	],
	"buffers":[
		{
			"byteLength":2202776,
			"uri":"data:application/octet-stream;base64,"
		}
	]
}
