{
	"asset":{
		"generator":"Khronos glTF Blender I/O v3.6.28",
		"version":"2.0"
	},
	"scene":0,
	"scenes":[
		{
			"name":"Scene",
			"nodes":[
				10
			]
		}
	],
	"nodes":[
		{
			"name":"Bone.001",
			"rotation":[
				-3.5527107141851855e-15,
				2.842170943040401e-14,
				4.2351642314005224e-22,
				1
			],
			"translation":[
				0,
				-1.7021114826202393,
				8.881784197001252e-16
			]
		},
		{
			"name":"Bone.002",
			"rotation":[
				-3.5527107141851855e-15,
				3.552713678800501e-14,
				-2.0194839173657902e-28,
				1
			],
			"translation":[
				0,
				-2.7024829387664795,
				8.881784197001252e-16
			]
		},
		{
			"children":[
				0,
				1
			],
			"name":"Bone",
			"rotation":[
				-2.980232594040899e-08,
				1.1920927533992653e-07,
				0,
				1
			],
			"scale":[
				1,
				0.9999999403953552,
				0.9999999403953552
			],
			"translation":[
				0,
				-1.2772650718688965,
				0
			]
		},
		{
			"mesh":0,
			"name":"Sphere",
			"skin":0
		},
		{
			"mesh":1,
			"name":"Sphere.001",
			"skin":0
		},
		{
			"mesh":2,
			"name":"Sphere.002",
			"skin":0
		},
		{
			"mesh":3,
			"name":"Sphere.003",
			"skin":0
		},
		{
			"mesh":4,
			"name":"Sphere.004",
			"skin":0
		},
		{
			"mesh":5,
			"name":"Sphere.005",
			"skin":0
		},
		{
			"mesh":6,
			"name":"Sphere.006",
			"skin":0
		},
		{
			"children":[
				3,
				4,
				5,
				6,
				7,
				8,
				9,
				2
			],
			"name":"beteXCORE",
			"rotation":[
				0,
				-0.7071067094802856,
				0,
				0.7071068286895752
			],
			"translation":[
				0,
				0.6793326735496521,
				0
			]
		}
	],
	"animations":[
		{
			"channels":[
				{
					"sampler":0,
					"target":{
						"node":2,
						"path":"translation"
					}
				},
				{
					"sampler":1,
					"target":{
						"node":2,
						"path":"rotation"
					}
				},
				{
					"sampler":2,
					"target":{
						"node":2,
						"path":"scale"
					}
				},
				{
					"sampler":3,
					"target":{
						"node":0,
						"path":"translation"
					}
				},
				{
					"sampler":4,
					"target":{
						"node":0,
						"path":"rotation"
					}
				},
				{
					"sampler":5,
					"target":{
						"node":0,
						"path":"scale"
					}
				},
				{
					"sampler":6,
					"target":{
						"node":1,
						"path":"translation"
					}
				},
				{
					"sampler":7,
					"target":{
						"node":1,
						"path":"rotation"
					}
				},
				{
					"sampler":8,
					"target":{
						"node":1,
						"path":"scale"
					}
				}
			],
			"name":"0_idl_loop",
			"samplers":[
				{
					"input":55,
					"interpolation":"LINEAR",
					"output":56
				},
				{
					"input":55,
					"interpolation":"LINEAR",
					"output":57
				},
				{
					"input":58,
					"interpolation":"STEP",
					"output":59
				},
				{
					"input":58,
					"interpolation":"STEP",
					"output":60
				},
				{
					"input":55,
					"interpolation":"LINEAR",
					"output":61
				},
				{
					"input":58,
					"interpolation":"STEP",
					"output":62
				},
				{
					"input":58,
					"interpolation":"STEP",
					"output":63
				},
				{
					"input":55,
					"interpolation":"LINEAR",
					"output":64
				},
				{
					"input":58,
					"interpolation":"LINEAR",
					"output":65
				}
			]
		}
	],
	"materials":[
		{
			"doubleSided":true,
			"name":"def",
			"pbrMetallicRoughness":{
				"baseColorTexture":{
					"index":0
				},
				"metallicFactor":0,
				"roughnessFactor":0.5
			}
		},
		{
			"doubleSided":true,
			"name":"light",
			"pbrMetallicRoughness":{
				"baseColorFactor":[
					0.800000011920929,
					0.800000011920929,
					0.800000011920929,
					1
				],
				"metallicFactor":0,
				"roughnessFactor":0.5
			}
		}
	],
	"meshes":[
		{
			"name":"Sphere",
			"primitives":[
				{
					"attributes":{
						"POSITION":0,
						"NORMAL":1,
						"TEXCOORD_0":2,
						"JOINTS_0":3,
						"WEIGHTS_0":4
					},
					"indices":5,
					"material":0
				}
			]
		},
		{
			"name":"Sphere.001",
			"primitives":[
				{
					"attributes":{
						"POSITION":7,
						"NORMAL":8,
						"TEXCOORD_0":9,
						"JOINTS_0":10,
						"WEIGHTS_0":11
					},
					"indices":12,
					"material":0
				}
			]
		},
		{
			"name":"Sphere.002",
			"primitives":[
				{
					"attributes":{
						"POSITION":13,
						"NORMAL":14,
						"TEXCOORD_0":15,
						"JOINTS_0":16,
						"WEIGHTS_0":17
					},
					"indices":18,
					"material":0
				}
			]
		},
		{
			"name":"Sphere.003",
			"primitives":[
				{
					"attributes":{
						"POSITION":19,
						"NORMAL":20,
						"TEXCOORD_0":21,
						"JOINTS_0":22,
						"WEIGHTS_0":23
					},
					"indices":24,
					"material":0
				}
			]
		},
		{
			"name":"Sphere.004",
			"primitives":[
				{
					"attributes":{
						"POSITION":25,
						"NORMAL":26,
						"TEXCOORD_0":27,
						"JOINTS_0":28,
						"WEIGHTS_0":29
					},
					"indices":30,
					"material":0
				},
				{
					"attributes":{
						"POSITION":31,
						"NORMAL":32,
						"TEXCOORD_0":33,
						"JOINTS_0":34,
						"WEIGHTS_0":35
					},
					"indices":36,
					"material":1
				}
			]
		},
		{
			"name":"Sphere.005",
			"primitives":[
				{
					"attributes":{
						"POSITION":37,
						"NORMAL":38,
						"TEXCOORD_0":39,
						"JOINTS_0":40,
						"WEIGHTS_0":41
					},
					"indices":42,
					"material":0
				},
				{
					"attributes":{
						"POSITION":43,
						"NORMAL":44,
						"TEXCOORD_0":45,
						"JOINTS_0":46,
						"WEIGHTS_0":47
					},
					"indices":48,
					"material":1
				}
			]
		},
		{
			"name":"Sphere.006",
			"primitives":[
				{
					"attributes":{
						"POSITION":49,
						"NORMAL":50,
						"TEXCOORD_0":51,
						"JOINTS_0":52,
						"WEIGHTS_0":53
					},
					"indices":54,
					"material":0
				}
			]
		}
	],
	"textures":[
		{
			"sampler":0,
			"source":0
		}
	],
	"images":[
		{
			"bufferView":6,
			"mimeType":"image/png",
			"name":"color_atlas"
		}
	],
	"skins":[
		{
			"inverseBindMatrices":6,
			"joints":[
				2,
				0,
				1
			],
			"name":"beteXCORE"
		}
	],
	"accessors":[
		{
			"bufferView":0,
			"componentType":5126,
			"count":1077,
			"max":[
				0.979664146900177,
				1.2285075187683105,
				0.9796640872955322
			],
			"min":[
				-0.9796640872955322,
				-0.2857750654220581,
				-0.9796640872955322
			],
			"type":"VEC3"
		},
		{
			"bufferView":1,
			"componentType":5126,
			"count":1077,
			"type":"VEC3"
		},
		{
			"bufferView":2,
			"componentType":5126,
			"count":1077,
			"type":"VEC2"
		},
		{
			"bufferView":3,
			"componentType":5121,
			"count":1077,
			"type":"VEC4"
		},
		{
			"bufferView":4,
			"componentType":5126,
			"count":1077,
			"type":"VEC4"
		},
		{
			"bufferView":5,
			"componentType":5123,
			"count":3234,
			"type":"SCALAR"
		},
		{
			"bufferView":7,
			"componentType":5126,
			"count":3,
			"type":"MAT4"
		},
		{
			"bufferView":8,
			"componentType":5126,
			"count":820,
			"max":[
				1.2792177200317383,
				0.4505015015602112,
				1.3376673460006714
			],
			"min":[
				-1.2721972465515137,
				-0.4408544600009918,
				-1.3374638557434082
			],
			"type":"VEC3"
		},
		{
			"bufferView":9,
			"componentType":5126,
			"count":820,
			"type":"VEC3"
		},
		{
			"bufferView":10,
			"componentType":5126,
			"count":820,
			"type":"VEC2"
		},
		{
			"bufferView":11,
			"componentType":5121,
			"count":820,
			"type":"VEC4"
		},
		{
			"bufferView":12,
			"componentType":5126,
			"count":820,
			"type":"VEC4"
		},
		{
			"bufferView":13,
			"componentType":5123,
			"count":3360,
			"type":"SCALAR"
		},
		{
			"bufferView":14,
			"componentType":5126,
			"count":1080,
			"max":[
				1.564560055732727,
				-0.4269512891769409,
				1.564560055732727
			],
			"min":[
				-1.564560055732727,
				-0.766813337802887,
				-1.564560055732727
			],
			"type":"VEC3"
		},
		{
			"bufferView":15,
			"componentType":5126,
			"count":1080,
			"type":"VEC3"
		},
		{
			"bufferView":16,
			"componentType":5126,
			"count":1080,
			"type":"VEC2"
		},
		{
			"bufferView":17,
			"componentType":5121,
			"count":1080,
			"type":"VEC4"
		},
		{
			"bufferView":18,
			"componentType":5126,
			"count":1080,
			"type":"VEC4"
		},
		{
			"bufferView":19,
			"componentType":5123,
			"count":3456,
			"type":"SCALAR"
		},
		{
			"bufferView":20,
			"componentType":5126,
			"count":1080,
			"max":[
				1.552873969078064,
				0.6793326735496521,
				1.552873969078064
			],
			"min":[
				-1.552873969078064,
				0.33947062492370605,
				-1.552873969078064
			],
			"type":"VEC3"
		},
		{
			"bufferView":21,
			"componentType":5126,
			"count":1080,
			"type":"VEC3"
		},
		{
			"bufferView":22,
			"componentType":5126,
			"count":1080,
			"type":"VEC2"
		},
		{
			"bufferView":23,
			"componentType":5121,
			"count":1080,
			"type":"VEC4"
		},
		{
			"bufferView":24,
			"componentType":5126,
			"count":1080,
			"type":"VEC4"
		},
		{
			"bufferView":25,
			"componentType":5123,
			"count":3456,
			"type":"SCALAR"
		},
		{
			"bufferView":26,
			"componentType":5126,
			"count":1764,
			"max":[
				1.4444602727890015,
				0.7581356167793274,
				1.4444602727890015
			],
			"min":[
				-1.444460153579712,
				0.6267311573028564,
				-1.444460153579712
			],
			"type":"VEC3"
		},
		{
			"bufferView":27,
			"componentType":5126,
			"count":1764,
			"type":"VEC3"
		},
		{
			"bufferView":28,
			"componentType":5126,
			"count":1764,
			"type":"VEC2"
		},
		{
			"bufferView":29,
			"componentType":5121,
			"count":1764,
			"type":"VEC4"
		},
		{
			"bufferView":30,
			"componentType":5126,
			"count":1764,
			"type":"VEC4"
		},
		{
			"bufferView":31,
			"componentType":5123,
			"count":7560,
			"type":"SCALAR"
		},
		{
			"bufferView":32,
			"componentType":5126,
			"count":2268,
			"max":[
				1.5070782899856567,
				0.910747766494751,
				1.5070782899856567
			],
			"min":[
				-1.507078766822815,
				0.7270000576972961,
				-1.5070785284042358
			],
			"type":"VEC3"
		},
		{
			"bufferView":33,
			"componentType":5126,
			"count":2268,
			"type":"VEC3"
		},
		{
			"bufferView":34,
			"componentType":5126,
			"count":2268,
			"type":"VEC2"
		},
		{
			"bufferView":35,
			"componentType":5121,
			"count":2268,
			"type":"VEC4"
		},
		{
			"bufferView":36,
			"componentType":5126,
			"count":2268,
			"type":"VEC4"
		},
		{
			"bufferView":37,
			"componentType":5123,
			"count":12726,
			"type":"SCALAR"
		},
		{
			"bufferView":38,
			"componentType":5126,
			"count":1764,
			"max":[
				1.451597809791565,
				-0.6922656297683716,
				1.4515976905822754
			],
			"min":[
				-1.4515992403030396,
				-0.8236700892448425,
				-1.4515984058380127
			],
			"type":"VEC3"
		},
		{
			"bufferView":39,
			"componentType":5126,
			"count":1764,
			"type":"VEC3"
		},
		{
			"bufferView":40,
			"componentType":5126,
			"count":1764,
			"type":"VEC2"
		},
		{
			"bufferView":41,
			"componentType":5121,
			"count":1764,
			"type":"VEC4"
		},
		{
			"bufferView":42,
			"componentType":5126,
			"count":1764,
			"type":"VEC4"
		},
		{
			"bufferView":43,
			"componentType":5123,
			"count":7560,
			"type":"SCALAR"
		},
		{
			"bufferView":44,
			"componentType":5126,
			"count":2268,
			"max":[
				1.514216661453247,
				-0.8095893859863281,
				1.5142161846160889
			],
			"min":[
				-1.5142179727554321,
				-0.9774261116981506,
				-1.5142171382904053
			],
			"type":"VEC3"
		},
		{
			"bufferView":45,
			"componentType":5126,
			"count":2268,
			"type":"VEC3"
		},
		{
			"bufferView":46,
			"componentType":5126,
			"count":2268,
			"type":"VEC2"
		},
		{
			"bufferView":47,
			"componentType":5121,
			"count":2268,
			"type":"VEC4"
		},
		{
			"bufferView":48,
			"componentType":5126,
			"count":2268,
			"type":"VEC4"
		},
		{
			"bufferView":49,
			"componentType":5123,
			"count":12726,
			"type":"SCALAR"
		},
		{
			"bufferView":50,
			"componentType":5126,
			"count":876,
			"max":[
				0.9780067205429077,
				-0.15230458974838257,
				0.9780066609382629
			],
			"min":[
				-0.9780066609382629,
				-0.7049452662467957,
				-0.9780066609382629
			],
			"type":"VEC3"
		},
		{
			"bufferView":51,
			"componentType":5126,
			"count":876,
			"type":"VEC3"
		},
		{
			"bufferView":52,
			"componentType":5126,
			"count":876,
			"type":"VEC2"
		},
		{
			"bufferView":53,
			"componentType":5121,
			"count":876,
			"type":"VEC4"
		},
		{
			"bufferView":54,
			"componentType":5126,
			"count":876,
			"type":"VEC4"
		},
		{
			"bufferView":55,
			"componentType":5123,
			"count":2262,
			"type":"SCALAR"
		},
		{
			"bufferView":56,
			"componentType":5126,
			"count":48,
			"max":[
				1.6
			],
			"min":[
				0.03333333333333333
			],
			"type":"SCALAR"
		},
		{
			"bufferView":57,
			"componentType":5126,
			"count":48,
			"type":"VEC3"
		},
		{
			"bufferView":58,
			"componentType":5126,
			"count":48,
			"type":"VEC4"
		},
		{
			"bufferView":59,
			"componentType":5126,
			"count":2,
			"max":[
				1.6
			],
			"min":[
				0.03333333333333333
			],
			"type":"SCALAR"
		},
		{
			"bufferView":60,
			"componentType":5126,
			"count":2,
			"type":"VEC3"
		},
		{
			"bufferView":61,
			"componentType":5126,
			"count":2,
			"type":"VEC3"
		},
		{
			"bufferView":62,
			"componentType":5126,
			"count":48,
			"type":"VEC4"
		},
		{
			"bufferView":63,
			"componentType":5126,
			"count":2,
			"type":"VEC3"
		},
		{
			"bufferView":64,
			"componentType":5126,
			"count":2,
			"type":"VEC3"
		},
		{
			"bufferView":65,
			"componentType":5126,
			"count":48,
			"type":"VEC4"
		},
		{
			"bufferView":66,
			"componentType":5126,
			"count":2,
			"type":"VEC3"
		}
	],
	"bufferViews":[
		{
			"buffer":0,
			"byteLength":12924,
			"byteOffset":0,
			"target":34962
		},
		{
			"buffer":0,
			"byteLength":12924,
			"byteOffset":12924,
			"target":34962
		},
		{
			"buffer":0,
			"byteLength":8616,
			"byteOffset":25848,
			"target":34962
		},
		{
			"buffer":0,
			"byteLength":4308,
			"byteOffset":34464,
			"target":34962
		},
		{
			"buffer":0,
			"byteLength":17232,
			"byteOffset":38772,
			"target":34962
		},
		{
			"buffer":0,
			"byteLength":6468,
			"byteOffset":56004,
			"target":34963
		},
		{
			"buffer":0,
			"byteLength":8663,
			"byteOffset":62472
		},
		{
			"buffer":0,
			"byteLength":192,
			"byteOffset":71136
		},
		{
			"buffer":0,
			"byteLength":9840,
			"byteOffset":71328,
			"target":34962
		},
		{
			"buffer":0,
			"byteLength":9840,
			"byteOffset":81168,
			"target":34962
		},
		{
			"buffer":0,
			"byteLength":6560,
			"byteOffset":91008,
			"target":34962
		},
		{
			"buffer":0,
			"byteLength":3280,
			"byteOffset":97568,
			"target":34962
		},
		{
			"buffer":0,
			"byteLength":13120,
			"byteOffset":100848,
			"target":34962
		},
		{
			"buffer":0,
			"byteLength":6720,
			"byteOffset":113968,
			"target":34963
		},
		{
			"buffer":0,
			"byteLength":12960,
			"byteOffset":120688,
			"target":34962
		},
		{
			"buffer":0,
			"byteLength":12960,
			"byteOffset":133648,
			"target":34962
		},
		{
			"buffer":0,
			"byteLength":8640,
			"byteOffset":146608,
			"target":34962
		},
		{
			"buffer":0,
			"byteLength":4320,
			"byteOffset":155248,
			"target":34962
		},
		{
			"buffer":0,
			"byteLength":17280,
			"byteOffset":159568,
			"target":34962
		},
		{
			"buffer":0,
			"byteLength":6912,
			"byteOffset":176848,
			"target":34963
		},
		{
			"buffer":0,
			"byteLength":12960,
			"byteOffset":183760,
			"target":34962
		},
		{
			"buffer":0,
			"byteLength":12960,
			"byteOffset":196720,
			"target":34962
		},
		{
			"buffer":0,
			"byteLength":8640,
			"byteOffset":209680,
			"target":34962
		},
		{
			"buffer":0,
			"byteLength":4320,
			"byteOffset":218320,
			"target":34962
		},
		{
			"buffer":0,
			"byteLength":17280,
			"byteOffset":222640,
			"target":34962
		},
		{
			"buffer":0,
			"byteLength":6912,
			"byteOffset":239920,
			"target":34963
		},
		{
			"buffer":0,
			"byteLength":21168,
			"byteOffset":246832,
			"target":34962
		},
		{
			"buffer":0,
			"byteLength":21168,
			"byteOffset":268000,
			"target":34962
		},
		{
			"buffer":0,
			"byteLength":14112,
			"byteOffset":289168,
			"target":34962
		},
		{
			"buffer":0,
			"byteLength":7056,
			"byteOffset":303280,
			"target":34962
		},
		{
			"buffer":0,
			"byteLength":28224,
			"byteOffset":310336,
			"target":34962
		},
		{
			"buffer":0,
			"byteLength":15120,
			"byteOffset":338560,
			"target":34963
		},
		{
			"buffer":0,
			"byteLength":27216,
			"byteOffset":353680,
			"target":34962
		},
		{
			"buffer":0,
			"byteLength":27216,
			"byteOffset":380896,
			"target":34962
		},
		{
			"buffer":0,
			"byteLength":18144,
			"byteOffset":408112,
			"target":34962
		},
		{
			"buffer":0,
			"byteLength":9072,
			"byteOffset":426256,
			"target":34962
		},
		{
			"buffer":0,
			"byteLength":36288,
			"byteOffset":435328,
			"target":34962
		},
		{
			"buffer":0,
			"byteLength":25452,
			"byteOffset":471616,
			"target":34963
		},
		{
			"buffer":0,
			"byteLength":21168,
			"byteOffset":497068,
			"target":34962
		},
		{
			"buffer":0,
			"byteLength":21168,
			"byteOffset":518236,
			"target":34962
		},
		{
			"buffer":0,
			"byteLength":14112,
			"byteOffset":539404,
			"target":34962
		},
		{
			"buffer":0,
			"byteLength":7056,
			"byteOffset":553516,
			"target":34962
		},
		{
			"buffer":0,
			"byteLength":28224,
			"byteOffset":560572,
			"target":34962
		},
		{
			"buffer":0,
			"byteLength":15120,
			"byteOffset":588796,
			"target":34963
		},
		{
			"buffer":0,
			"byteLength":27216,
			"byteOffset":603916,
			"target":34962
		},
		{
			"buffer":0,
			"byteLength":27216,
			"byteOffset":631132,
			"target":34962
		},
		{
			"buffer":0,
			"byteLength":18144,
			"byteOffset":658348,
			"target":34962
		},
		{
			"buffer":0,
			"byteLength":9072,
			"byteOffset":676492,
			"target":34962
		},
		{
			"buffer":0,
			"byteLength":36288,
			"byteOffset":685564,
			"target":34962
		},
		{
			"buffer":0,
			"byteLength":25452,
			"byteOffset":721852,
			"target":34963
		},
		{
			"buffer":0,
			"byteLength":10512,
			"byteOffset":747304,
			"target":34962
		},
		{
			"buffer":0,
			"byteLength":10512,
			"byteOffset":757816,
			"target":34962
		},
		{
			"buffer":0,
			"byteLength":7008,
			"byteOffset":768328,
			"target":34962
		},
		{
			"buffer":0,
			"byteLength":3504,
			"byteOffset":775336,
			"target":34962
		},
		{
			"buffer":0,
			"byteLength":14016,
			"byteOffset":778840,
			"target":34962
		},
		{
			"buffer":0,
			"byteLength":4524,
			"byteOffset":792856,
			"target":34963
		},
		{
			"buffer":0,
			"byteLength":192,
			"byteOffset":797380
		},
		{
			"buffer":0,
			"byteLength":576,
			"byteOffset":797572
		},
		{
			"buffer":0,
			"byteLength":768,
			"byteOffset":798148
		},
		{
			"buffer":0,
			"byteLength":8,
			"byteOffset":798916
		},
		{
			"buffer":0,
			"byteLength":24,
			"byteOffset":798924
		},
		{
			"buffer":0,
			"byteLength":24,
			"byteOffset":798948
		},
		{
			"buffer":0,
			"byteLength":768,
			"byteOffset":798972
		},
		{
			"buffer":0,
			"byteLength":24,
			"byteOffset":799740
		},
		{
			"buffer":0,
			"byteLength":24,
			"byteOffset":799764
		},
		{
			"buffer":0,
			"byteLength":768,
			"byteOffset":799788
		},
		{
			"buffer":0,
			"byteLength":24,
			"byteOffset":800556
		}
	],
	"samplers":[
		{
			"magFilter":9728,
			"minFilter":9984
		}
	],
	"buffers":[
		{
			"byteLength":800580,
			"uri":"data:application/octet-stream;base64,"
		}
	]
}
