{
	"asset":{
		"generator":"Khronos glTF Blender I/O v3.6.28",
		"version":"2.0"
	},
	"scene":0,
	"scenes":[
		{
			"name":"Scene",
			"nodes":[
				0,
				1,
				2
			]
		}
	],
	"nodes":[
		{
			"mesh":0,
			"name":"atari 2600",
			"translation":[
				0,
				0.03157372027635574,
				0
			]
		},
		{
			"mesh":1,
			"name":"atari 2600_controller",
			"translation":[
				0,
				0.03157372027635574,
				-0.019160140305757523
			]
		},
		{
			"mesh":2,
			"name":"atari 2600.001",
			"translation":[
				0,
				0.03157372027635574,
				0
			]
		}
	],
	"materials":[
		{
			"doubleSided":true,
			"emissiveFactor":[
				1,
				1,
				1
			],
			"emissiveTexture":{
				"index":0
			},
			"name":"gc",
			"pbrMetallicRoughness":{
				"baseColorTexture":{
					"index":1
				},
				"metallicFactor":0,
				"roughnessFactor":0.5
			}
		}
	],
	"meshes":[
		{
			"name":"Cube.001",
			"primitives":[
				{
					"attributes":{
						"POSITION":0,
						"NORMAL":1,
						"TEXCOORD_0":2
					},
					"indices":3,
					"material":0
				}
			]
		},
		{
			"name":"Cube.003",
			"primitives":[
				{
					"attributes":{
						"POSITION":4,
						"NORMAL":5,
						"TEXCOORD_0":6
					},
					"indices":7,
					"material":0
				}
			]
		},
		{
			"name":"Cube.004",
			"primitives":[
				{
					"attributes":{
						"POSITION":8,
						"NORMAL":9,
						"TEXCOORD_0":10
					},
					"indices":11,
					"material":0
				}
			]
		}
	],
	"textures":[
		{
			"sampler":0,
			"source":0
		},
		{
			"sampler":0,
			"source":0
		}
	],
	"images":[
		{
			"bufferView":4,
			"mimeType":"image/png",
			"name":"color_atlas"
		}
	],
	"accessors":[
		{
			"bufferView":0,
			"componentType":5126,
			"count":5474,
			"max":[
				0.3506185710430145,
				0.15189048647880554,
				0.23527421057224274
			],
			"min":[
				-0.3506185710430145,
				-0.031346652656793594,
				-0.24954667687416077
			],
			"type":"VEC3"
		},
		{
			"bufferView":1,
			"componentType":5126,
			"count":5474,
			"type":"VEC3"
		},
		{
			"bufferView":2,
			"componentType":5126,
			"count":5474,
			"type":"VEC2"
		},
		{
			"bufferView":3,
			"componentType":5123,
			"count":15054,
			"type":"SCALAR"
		},
		{
			"bufferView":5,
			"componentType":5126,
			"count":7326,
			"max":[
				0.14634288847446442,
				0.12757575511932373,
				0.3796115815639496
			],
			"min":[
				-0.14634288847446442,
				-0.03097180277109146,
				0.267620712518692
			],
			"type":"VEC3"
		},
		{
			"bufferView":6,
			"componentType":5126,
			"count":7326,
			"type":"VEC3"
		},
		{
			"bufferView":7,
			"componentType":5126,
			"count":7326,
			"type":"VEC2"
		},
		{
			"bufferView":8,
			"componentType":5123,
			"count":12840,
			"type":"SCALAR"
		},
		{
			"bufferView":9,
			"componentType":5126,
			"count":468,
			"max":[
				0.09353803098201752,
				0.18236956000328064,
				-0.0481175035238266
			],
			"min":[
				-0.09353803098201752,
				0.07265058159828186,
				-0.12998931109905243
			],
			"type":"VEC3"
		},
		{
			"bufferView":10,
			"componentType":5126,
			"count":468,
			"type":"VEC3"
		},
		{
			"bufferView":11,
			"componentType":5126,
			"count":468,
			"type":"VEC2"
		},
		{
			"bufferView":12,
			"componentType":5123,
			"count":996,
			"type":"SCALAR"
		}
	],
	"bufferViews":[
		{
			"buffer":0,
			"byteLength":65688,
			"byteOffset":0,
			"target":34962
		},
		{
			"buffer":0,
			"byteLength":65688,
			"byteOffset":65688,
			"target":34962
		},
		{
			"buffer":0,
			"byteLength":43792,
			"byteOffset":131376,
			"target":34962
		},
		{
			"buffer":0,
			"byteLength":30108,
			"byteOffset":175168,
			"target":34963
		},
		{
			"buffer":0,
			"byteLength":8663,
			"byteOffset":205276
		},
		{
			"buffer":0,
			"byteLength":87912,
			"byteOffset":213940,
			"target":34962
		},
		{
			"buffer":0,
			"byteLength":87912,
			"byteOffset":301852,
			"target":34962
		},
		{
			"buffer":0,
			"byteLength":58608,
			"byteOffset":389764,
			"target":34962
		},
		{
			"buffer":0,
			"byteLength":25680,
			"byteOffset":448372,
			"target":34963
		},
		{
			"buffer":0,
			"byteLength":5616,
			"byteOffset":474052,
			"target":34962
		},
		{
			"buffer":0,
			"byteLength":5616,
			"byteOffset":479668,
			"target":34962
		},
		{
			"buffer":0,
			"byteLength":3744,
			"byteOffset":485284,
			"target":34962
		},
		{
			"buffer":0,
			"byteLength":1992,
			"byteOffset":489028,
			"target":34963
		}
	],
	"samplers":[
		{
			"magFilter":9728,
			"minFilter":9984
		}
	],
	"buffers":[
		{
			"byteLength":491020,
			"uri":"data:application/octet-stream;base64,"
		}
	]
}
