{
	"asset":{
		"generator":"Khronos glTF Blender I/O v3.6.28",
		"version":"2.0"
	},
	"scene":0,
	"scenes":[
		{
			"name":"Scene",
			"nodes":[
				0
			]
		}
	],
	"nodes":[
		{
			"mesh":0,
			"name":"Coleco Telstar",
			"translation":[
				-0.4075409471988678,
				0.010878320783376694,
				0.0166662335395813
			]
		}
	],
	"materials":[
		{
			"doubleSided":true,
			"name":"gc",
			"pbrMetallicRoughness":{
				"baseColorTexture":{
					"index":0
				},
				"metallicFactor":0,
				"roughnessFactor":0.5
			}
		}
	],
	"meshes":[
		{
			"name":"Plane.001",
			"primitives":[
				{
					"attributes":{
						"POSITION":0,
						"NORMAL":1,
						"TEXCOORD_0":2
					},
					"indices":3,
					"material":0
				}
			]
		}
	],
	"textures":[
		{
			"sampler":0,
			"source":0
		}
	],
	"images":[
		{
			"bufferView":4,
			"mimeType":"image/png",
			"name":"color_atlas"
		}
	],
	"accessors":[
		{
			"bufferView":0,
			"componentType":5126,
			"count":3295,
			"max":[
				0.47878721356391907,
				0.2806251645088196,
				1.2415903806686401
			],
			"min":[
				-0.47878724336624146,
				-0.010973425582051277,
				-1.2415903806686401
			],
			"type":"VEC3"
		},
		{
			"bufferView":1,
			"componentType":5126,
			"count":3295,
			"type":"VEC3"
		},
		{
			"bufferView":2,
			"componentType":5126,
			"count":3295,
			"type":"VEC2"
		},
		{
			"bufferView":3,
			"componentType":5123,
			"count":6144,
			"type":"SCALAR"
		}
	],
	"bufferViews":[
		{
			"buffer":0,
			"byteLength":39540,
			"byteOffset":0,
			"target":34962
		},
		{
			"buffer":0,
			"byteLength":39540,
			"byteOffset":39540,
			"target":34962
		},
		{
			"buffer":0,
			"byteLength":26360,
			"byteOffset":79080,
			"target":34962
		},
		{
			"buffer":0,
			"byteLength":12288,
			"byteOffset":105440,
			"target":34963
		},
		{
			"buffer":0,
			"byteLength":8663,
			"byteOffset":117728
		}
	],
	"samplers":[
		{
			"magFilter":9728,
			"minFilter":9984
		}
	],
	"buffers":[
		{
			"byteLength":126392,
			"uri":"data:application/octet-stream;base64,"
		}
	]
}
