{
	"asset":{
		"generator":"Khronos glTF Blender I/O v3.6.28",
		"version":"2.0"
	},
	"scene":0,
	"scenes":[
		{
			"name":"Scene",
			"nodes":[
				0,
				1,
				2
			]
		}
	],
	"nodes":[
		{
			"mesh":0,
			"name":"FairchildChannelF"
		},
		{
			"mesh":1,
			"name":"FairchildChannelF_cartridge"
		},
		{
			"mesh":2,
			"name":"FairchildChannelF_controller"
		}
	],
	"materials":[
		{
			"doubleSided":true,
			"emissiveFactor":[
				1,
				1,
				1
			],
			"emissiveTexture":{
				"index":0
			},
			"name":"gc",
			"pbrMetallicRoughness":{
				"baseColorTexture":{
					"index":1
				},
				"metallicFactor":0,
				"roughnessFactor":0.5
			}
		},
		{
			"doubleSided":true,
			"name":"light",
			"pbrMetallicRoughness":{
				"baseColorFactor":[
					0.800000011920929,
					0.800000011920929,
					0.800000011920929,
					1
				],
				"metallicFactor":0,
				"roughnessFactor":0.5
			}
		},
		{
			"doubleSided":true,
			"emissiveFactor":[
				1,
				1,
				1
			],
			"emissiveTexture":{
				"index":2
			},
			"name":"gc",
			"pbrMetallicRoughness":{
				"baseColorTexture":{
					"index":3
				},
				"metallicFactor":0,
				"roughnessFactor":0.5
			}
		}
	],
	"meshes":[
		{
			"name":"Cube",
			"primitives":[
				{
					"attributes":{
						"POSITION":0,
						"NORMAL":1,
						"TEXCOORD_0":2
					},
					"indices":3,
					"material":0
				},
				{
					"attributes":{
						"POSITION":4,
						"NORMAL":5,
						"TEXCOORD_0":6
					},
					"indices":7,
					"material":1
				}
			]
		},
		{
			"name":"Cube.001",
			"primitives":[
				{
					"attributes":{
						"POSITION":8,
						"NORMAL":9,
						"TEXCOORD_0":10
					},
					"indices":11,
					"material":0
				}
			]
		},
		{
			"name":"Cube.003",
			"primitives":[
				{
					"attributes":{
						"POSITION":12,
						"NORMAL":13,
						"TEXCOORD_0":14
					},
					"indices":15,
					"material":2
				}
			]
		}
	],
	"textures":[
		{
			"sampler":0,
			"source":0
		},
		{
			"sampler":0,
			"source":0
		},
		{
			"sampler":0,
			"source":0
		},
		{
			"sampler":0,
			"source":0
		}
	],
	"images":[
		{
			"bufferView":4,
			"mimeType":"image/png",
			"name":"color_atlas"
		}
	],
	"accessors":[
		{
			"bufferView":0,
			"componentType":5126,
			"count":3837,
			"max":[
				0.3285708427429199,
				0.15094994008541107,
				0.22250300645828247
			],
			"min":[
				-0.40950196981430054,
				0.0009548419620841742,
				-0.2225584089756012
			],
			"type":"VEC3"
		},
		{
			"bufferView":1,
			"componentType":5126,
			"count":3837,
			"type":"VEC3"
		},
		{
			"bufferView":2,
			"componentType":5126,
			"count":3837,
			"type":"VEC2"
		},
		{
			"bufferView":3,
			"componentType":5123,
			"count":8397,
			"type":"SCALAR"
		},
		{
			"bufferView":5,
			"componentType":5126,
			"count":31,
			"max":[
				-0.25264689326286316,
				0.08635707199573517,
				0.06122668832540512
			],
			"min":[
				-0.2707350552082062,
				0.08285254240036011,
				0.040849845856428146
			],
			"type":"VEC3"
		},
		{
			"bufferView":6,
			"componentType":5126,
			"count":31,
			"type":"VEC3"
		},
		{
			"bufferView":7,
			"componentType":5126,
			"count":31,
			"type":"VEC2"
		},
		{
			"bufferView":8,
			"componentType":5123,
			"count":54,
			"type":"SCALAR"
		},
		{
			"bufferView":9,
			"componentType":5126,
			"count":395,
			"max":[
				0.245863676071167,
				0.13417048752307892,
				0.09535739570856094
			],
			"min":[
				0.03904375433921814,
				0.06802710890769958,
				-0.11164307594299316
			],
			"type":"VEC3"
		},
		{
			"bufferView":10,
			"componentType":5126,
			"count":395,
			"type":"VEC3"
		},
		{
			"bufferView":11,
			"componentType":5126,
			"count":395,
			"type":"VEC2"
		},
		{
			"bufferView":12,
			"componentType":5123,
			"count":996,
			"type":"SCALAR"
		},
		{
			"bufferView":13,
			"componentType":5126,
			"count":2142,
			"max":[
				-0.3598037362098694,
				0.14356757700443268,
				0.009347949177026749
			],
			"min":[
				-0.4077425003051758,
				0.010172011330723763,
				-0.1823447048664093
			],
			"type":"VEC3"
		},
		{
			"bufferView":14,
			"componentType":5126,
			"count":2142,
			"type":"VEC3"
		},
		{
			"bufferView":15,
			"componentType":5126,
			"count":2142,
			"type":"VEC2"
		},
		{
			"bufferView":16,
			"componentType":5123,
			"count":7488,
			"type":"SCALAR"
		}
	],
	"bufferViews":[
		{
			"buffer":0,
			"byteLength":46044,
			"byteOffset":0,
			"target":34962
		},
		{
			"buffer":0,
			"byteLength":46044,
			"byteOffset":46044,
			"target":34962
		},
		{
			"buffer":0,
			"byteLength":30696,
			"byteOffset":92088,
			"target":34962
		},
		{
			"buffer":0,
			"byteLength":16794,
			"byteOffset":122784,
			"target":34963
		},
		{
			"buffer":0,
			"byteLength":8663,
			"byteOffset":139580
		},
		{
			"buffer":0,
			"byteLength":372,
			"byteOffset":148244,
			"target":34962
		},
		{
			"buffer":0,
			"byteLength":372,
			"byteOffset":148616,
			"target":34962
		},
		{
			"buffer":0,
			"byteLength":248,
			"byteOffset":148988,
			"target":34962
		},
		{
			"buffer":0,
			"byteLength":108,
			"byteOffset":149236,
			"target":34963
		},
		{
			"buffer":0,
			"byteLength":4740,
			"byteOffset":149344,
			"target":34962
		},
		{
			"buffer":0,
			"byteLength":4740,
			"byteOffset":154084,
			"target":34962
		},
		{
			"buffer":0,
			"byteLength":3160,
			"byteOffset":158824,
			"target":34962
		},
		{
			"buffer":0,
			"byteLength":1992,
			"byteOffset":161984,
			"target":34963
		},
		{
			"buffer":0,
			"byteLength":25704,
			"byteOffset":163976,
			"target":34962
		},
		{
			"buffer":0,
			"byteLength":25704,
			"byteOffset":189680,
			"target":34962
		},
		{
			"buffer":0,
			"byteLength":17136,
			"byteOffset":215384,
			"target":34962
		},
		{
			"buffer":0,
			"byteLength":14976,
			"byteOffset":232520,
			"target":34963
		}
	],
	"samplers":[
		{
			"magFilter":9728,
			"minFilter":9984
		}
	],
	"buffers":[
		{
			"byteLength":247496,
			"uri":"data:application/octet-stream;base64,"
		}
	]
}
