{
	"asset":{
		"generator":"Khronos glTF Blender I/O v3.6.28",
		"version":"2.0"
	},
	"scene":0,
	"scenes":[
		{
			"name":"Scene",
			"nodes":[
				0,
				1
			]
		}
	],
	"nodes":[
		{
			"mesh":0,
			"name":"gameboyROM"
		},
		{
			"mesh":1,
			"name":"gameBoy",
			"translation":[
				0,
				-1.3075389862060547,
				0
			]
		}
	],
	"materials":[
		{
			"doubleSided":true,
			"name":"gc",
			"pbrMetallicRoughness":{
				"baseColorTexture":{
					"index":0
				},
				"metallicFactor":0,
				"roughnessFactor":0.5
			}
		},
		{
			"doubleSided":true,
			"name":"screen",
			"pbrMetallicRoughness":{
				"baseColorTexture":{
					"index":1
				},
				"metallicFactor":0,
				"roughnessFactor":0.5
			}
		}
	],
	"meshes":[
		{
			"name":"Cube.001",
			"primitives":[
				{
					"attributes":{
						"POSITION":0,
						"NORMAL":1,
						"TEXCOORD_0":2
					},
					"indices":3,
					"material":0
				}
			]
		},
		{
			"name":"Cube.003",
			"primitives":[
				{
					"attributes":{
						"POSITION":4,
						"NORMAL":5,
						"TEXCOORD_0":6
					},
					"indices":7,
					"material":0
				},
				{
					"attributes":{
						"POSITION":8,
						"NORMAL":9,
						"TEXCOORD_0":10
					},
					"indices":11,
					"material":1
				}
			]
		}
	],
	"textures":[
		{
			"sampler":0,
			"source":0
		},
		{
			"sampler":1,
			"source":1
		}
	],
	"images":[
		{
			"bufferView":4,
			"mimeType":"image/png",
			"name":"color_atlas"
		},
		{
			"bufferView":13,
			"mimeType":"image/png",
			"name":"bg"
		}
	],
	"accessors":[
		{
			"bufferView":0,
			"componentType":5126,
			"count":544,
			"max":[
				1.0770013332366943,
				4.296182632446289,
				-0.7440625429153442
			],
			"min":[
				-1.1142029762268066,
				1.8740158081054688,
				-0.9652220606803894
			],
			"type":"VEC3"
		},
		{
			"bufferView":1,
			"componentType":5126,
			"count":544,
			"type":"VEC3"
		},
		{
			"bufferView":2,
			"componentType":5126,
			"count":544,
			"type":"VEC2"
		},
		{
			"bufferView":3,
			"componentType":5123,
			"count":996,
			"type":"SCALAR"
		},
		{
			"bufferView":5,
			"componentType":5126,
			"count":14085,
			"max":[
				1.541504144668579,
				5.433494567871094,
				1.0182290077209473
			],
			"min":[
				-1.7499377727508545,
				0.0995049700140953,
				-1.1299879550933838
			],
			"type":"VEC3"
		},
		{
			"bufferView":6,
			"componentType":5126,
			"count":14085,
			"type":"VEC3"
		},
		{
			"bufferView":7,
			"componentType":5126,
			"count":14085,
			"type":"VEC2"
		},
		{
			"bufferView":8,
			"componentType":5123,
			"count":36270,
			"type":"SCALAR"
		},
		{
			"bufferView":9,
			"componentType":5126,
			"count":23,
			"max":[
				1.1772708892822266,
				4.886129379272461,
				0.0023851022124290466
			],
			"min":[
				-1.3818501234054565,
				2.9982595443725586,
				0.0023851022124290466
			],
			"type":"VEC3"
		},
		{
			"bufferView":10,
			"componentType":5126,
			"count":23,
			"type":"VEC3"
		},
		{
			"bufferView":11,
			"componentType":5126,
			"count":23,
			"type":"VEC2"
		},
		{
			"bufferView":12,
			"componentType":5123,
			"count":63,
			"type":"SCALAR"
		}
	],
	"bufferViews":[
		{
			"buffer":0,
			"byteLength":6528,
			"byteOffset":0,
			"target":34962
		},
		{
			"buffer":0,
			"byteLength":6528,
			"byteOffset":6528,
			"target":34962
		},
		{
			"buffer":0,
			"byteLength":4352,
			"byteOffset":13056,
			"target":34962
		},
		{
			"buffer":0,
			"byteLength":1992,
			"byteOffset":17408,
			"target":34963
		},
		{
			"buffer":0,
			"byteLength":8663,
			"byteOffset":19400
		},
		{
			"buffer":0,
			"byteLength":169020,
			"byteOffset":28064,
			"target":34962
		},
		{
			"buffer":0,
			"byteLength":169020,
			"byteOffset":197084,
			"target":34962
		},
		{
			"buffer":0,
			"byteLength":112680,
			"byteOffset":366104,
			"target":34962
		},
		{
			"buffer":0,
			"byteLength":72540,
			"byteOffset":478784,
			"target":34963
		},
		{
			"buffer":0,
			"byteLength":276,
			"byteOffset":551324,
			"target":34962
		},
		{
			"buffer":0,
			"byteLength":276,
			"byteOffset":551600,
			"target":34962
		},
		{
			"buffer":0,
			"byteLength":184,
			"byteOffset":551876,
			"target":34962
		},
		{
			"buffer":0,
			"byteLength":126,
			"byteOffset":552060,
			"target":34963
		},
		{
			"buffer":0,
			"byteLength":81063,
			"byteOffset":552188
		}
	],
	"samplers":[
		{
			"magFilter":9728,
			"minFilter":9984
		},
		{
			"magFilter":9729,
			"minFilter":9987
		}
	],
	"buffers":[
		{
			"byteLength":633252,
			"uri":"data:application/octet-stream;base64,"
		}
	]
}
