{
	"asset":{
		"generator":"Khronos glTF Blender I/O v3.6.28",
		"version":"2.0"
	},
	"scene":0,
	"scenes":[
		{
			"name":"Scene",
			"nodes":[
				0,
				1,
				2,
				3
			]
		}
	],
	"nodes":[
		{
			"mesh":0,
			"name":"Magnavox Odyssey\u00b2",
			"translation":[
				0,
				0.00022706761956214905,
				0.07333626598119736
			]
		},
		{
			"mesh":1,
			"name":"Magnavox Odyssey\u00b2.002",
			"translation":[
				0,
				0.018037330359220505,
				0.07333626598119736
			]
		},
		{
			"mesh":2,
			"name":"Magnavox Odyssey\u00b2.003",
			"translation":[
				0,
				0.00022706761956214905,
				0.07333626598119736
			]
		},
		{
			"mesh":3,
			"name":"Magnavox Odyssey\u00b2.001",
			"translation":[
				0,
				0.00022706761956214905,
				0.07333626598119736
			]
		}
	],
	"materials":[
		{
			"doubleSided":true,
			"name":"gc",
			"pbrMetallicRoughness":{
				"baseColorTexture":{
					"index":0
				},
				"metallicFactor":0,
				"roughnessFactor":0.5
			}
		}
	],
	"meshes":[
		{
			"name":"Cube",
			"primitives":[
				{
					"attributes":{
						"POSITION":0,
						"NORMAL":1,
						"TEXCOORD_0":2
					},
					"indices":3,
					"material":0
				}
			]
		},
		{
			"name":"Cube.002",
			"primitives":[
				{
					"attributes":{
						"POSITION":4,
						"NORMAL":5,
						"TEXCOORD_0":6
					},
					"indices":7,
					"material":0
				}
			]
		},
		{
			"name":"Cube.003",
			"primitives":[
				{
					"attributes":{
						"POSITION":8,
						"NORMAL":9,
						"TEXCOORD_0":10
					},
					"indices":11,
					"material":0
				}
			]
		},
		{
			"name":"Cube.004",
			"primitives":[
				{
					"attributes":{
						"POSITION":12,
						"NORMAL":13,
						"TEXCOORD_0":14
					},
					"indices":15,
					"material":0
				}
			]
		}
	],
	"textures":[
		{
			"sampler":0,
			"source":0
		}
	],
	"images":[
		{
			"bufferView":4,
			"mimeType":"image/png",
			"name":"color_atlas"
		}
	],
	"accessors":[
		{
			"bufferView":0,
			"componentType":5126,
			"count":942,
			"max":[
				0.3315579891204834,
				0.13070473074913025,
				0.25430911779403687
			],
			"min":[
				-0.3314003348350525,
				0.05412743240594864,
				-0.32460930943489075
			],
			"type":"VEC3"
		},
		{
			"bufferView":1,
			"componentType":5126,
			"count":942,
			"type":"VEC3"
		},
		{
			"bufferView":2,
			"componentType":5126,
			"count":942,
			"type":"VEC2"
		},
		{
			"bufferView":3,
			"componentType":5123,
			"count":2256,
			"type":"SCALAR"
		},
		{
			"bufferView":5,
			"componentType":5126,
			"count":2244,
			"max":[
				0.3390982449054718,
				0.12257227301597595,
				0.26375076174736023
			],
			"min":[
				-0.3390887379646301,
				-0.016791854053735733,
				-0.3583618998527527
			],
			"type":"VEC3"
		},
		{
			"bufferView":6,
			"componentType":5126,
			"count":2244,
			"type":"VEC3"
		},
		{
			"bufferView":7,
			"componentType":5126,
			"count":2244,
			"type":"VEC2"
		},
		{
			"bufferView":8,
			"componentType":5123,
			"count":5598,
			"type":"SCALAR"
		},
		{
			"bufferView":9,
			"componentType":5126,
			"count":13466,
			"max":[
				0.2888641953468323,
				0.06097507104277611,
				0.2099303901195526
			],
			"min":[
				-0.20805437862873077,
				0.05038050562143326,
				-0.1486045867204666
			],
			"type":"VEC3"
		},
		{
			"bufferView":10,
			"componentType":5126,
			"count":13466,
			"type":"VEC3"
		},
		{
			"bufferView":11,
			"componentType":5126,
			"count":13466,
			"type":"VEC2"
		},
		{
			"bufferView":12,
			"componentType":5123,
			"count":48354,
			"type":"SCALAR"
		},
		{
			"bufferView":13,
			"componentType":5126,
			"count":251,
			"max":[
				0.3350250720977783,
				0.1422572135925293,
				0.2627559304237366
			],
			"min":[
				-0.3345041275024414,
				0.056849606335163116,
				-0.3347802758216858
			],
			"type":"VEC3"
		},
		{
			"bufferView":14,
			"componentType":5126,
			"count":251,
			"type":"VEC3"
		},
		{
			"bufferView":15,
			"componentType":5126,
			"count":251,
			"type":"VEC2"
		},
		{
			"bufferView":16,
			"componentType":5123,
			"count":630,
			"type":"SCALAR"
		}
	],
	"bufferViews":[
		{
			"buffer":0,
			"byteLength":11304,
			"byteOffset":0,
			"target":34962
		},
		{
			"buffer":0,
			"byteLength":11304,
			"byteOffset":11304,
			"target":34962
		},
		{
			"buffer":0,
			"byteLength":7536,
			"byteOffset":22608,
			"target":34962
		},
		{
			"buffer":0,
			"byteLength":4512,
			"byteOffset":30144,
			"target":34963
		},
		{
			"buffer":0,
			"byteLength":8663,
			"byteOffset":34656
		},
		{
			"buffer":0,
			"byteLength":26928,
			"byteOffset":43320,
			"target":34962
		},
		{
			"buffer":0,
			"byteLength":26928,
			"byteOffset":70248,
			"target":34962
		},
		{
			"buffer":0,
			"byteLength":17952,
			"byteOffset":97176,
			"target":34962
		},
		{
			"buffer":0,
			"byteLength":11196,
			"byteOffset":115128,
			"target":34963
		},
		{
			"buffer":0,
			"byteLength":161592,
			"byteOffset":126324,
			"target":34962
		},
		{
			"buffer":0,
			"byteLength":161592,
			"byteOffset":287916,
			"target":34962
		},
		{
			"buffer":0,
			"byteLength":107728,
			"byteOffset":449508,
			"target":34962
		},
		{
			"buffer":0,
			"byteLength":96708,
			"byteOffset":557236,
			"target":34963
		},
		{
			"buffer":0,
			"byteLength":3012,
			"byteOffset":653944,
			"target":34962
		},
		{
			"buffer":0,
			"byteLength":3012,
			"byteOffset":656956,
			"target":34962
		},
		{
			"buffer":0,
			"byteLength":2008,
			"byteOffset":659968,
			"target":34962
		},
		{
			"buffer":0,
			"byteLength":1260,
			"byteOffset":661976,
			"target":34963
		}
	],
	"samplers":[
		{
			"magFilter":9728,
			"minFilter":9984
		}
	],
	"buffers":[
		{
			"byteLength":663236,
			"uri":"data:application/octet-stream;base64,"
		}
	]
}
