{
	"asset":{
		"generator":"Khronos glTF Blender I/O v3.6.28",
		"version":"2.0"
	},
	"extensionsUsed":[
		"KHR_materials_specular",
		"KHR_materials_ior"
	],
	"scene":0,
	"scenes":[
		{
			"name":"Scene",
			"nodes":[
				0,
				1
			]
		}
	],
	"nodes":[
		{
			"mesh":0,
			"name":"Magnavox Odyssey"
		},
		{
			"mesh":1,
			"name":"Magnavox Odyssey_disk"
		}
	],
	"materials":[
		{
			"doubleSided":true,
			"emissiveFactor":[
				1,
				1,
				1
			],
			"emissiveTexture":{
				"index":0
			},
			"extensions":{
				"KHR_materials_specular":{
					"specularColorFactor":[
						0,
						0,
						0
					]
				},
				"KHR_materials_ior":{
					"ior":1.4500000476837158
				}
			},
			"name":"gc",
			"pbrMetallicRoughness":{
				"baseColorTexture":{
					"index":1
				},
				"metallicFactor":0,
				"roughnessFactor":0
			}
		}
	],
	"meshes":[
		{
			"name":"Cube",
			"primitives":[
				{
					"attributes":{
						"POSITION":0,
						"NORMAL":1,
						"TEXCOORD_0":2
					},
					"indices":3,
					"material":0
				}
			]
		},
		{
			"name":"Cube.003",
			"primitives":[
				{
					"attributes":{
						"POSITION":4,
						"NORMAL":5,
						"TEXCOORD_0":6
					},
					"indices":7,
					"material":0
				}
			]
		}
	],
	"textures":[
		{
			"sampler":0,
			"source":0
		},
		{
			"sampler":0,
			"source":0
		}
	],
	"images":[
		{
			"bufferView":4,
			"mimeType":"image/png",
			"name":"color_atlas"
		}
	],
	"accessors":[
		{
			"bufferView":0,
			"componentType":5126,
			"count":16044,
			"max":[
				0.5274817943572998,
				0.4579385817050934,
				0.9573982954025269
			],
			"min":[
				-0.9972610473632812,
				0.004953179508447647,
				-0.9573982954025269
			],
			"type":"VEC3"
		},
		{
			"bufferView":1,
			"componentType":5126,
			"count":16044,
			"type":"VEC3"
		},
		{
			"bufferView":2,
			"componentType":5126,
			"count":16044,
			"type":"VEC2"
		},
		{
			"bufferView":3,
			"componentType":5123,
			"count":40284,
			"type":"SCALAR"
		},
		{
			"bufferView":5,
			"componentType":5126,
			"count":1033,
			"max":[
				0.08403754234313965,
				0.38352614641189575,
				0.1435038149356842
			],
			"min":[
				0.06933660805225372,
				0.20488125085830688,
				-0.1435038149356842
			],
			"type":"VEC3"
		},
		{
			"bufferView":6,
			"componentType":5126,
			"count":1033,
			"type":"VEC3"
		},
		{
			"bufferView":7,
			"componentType":5126,
			"count":1033,
			"type":"VEC2"
		},
		{
			"bufferView":8,
			"componentType":5123,
			"count":2658,
			"type":"SCALAR"
		}
	],
	"bufferViews":[
		{
			"buffer":0,
			"byteLength":192528,
			"byteOffset":0,
			"target":34962
		},
		{
			"buffer":0,
			"byteLength":192528,
			"byteOffset":192528,
			"target":34962
		},
		{
			"buffer":0,
			"byteLength":128352,
			"byteOffset":385056,
			"target":34962
		},
		{
			"buffer":0,
			"byteLength":80568,
			"byteOffset":513408,
			"target":34963
		},
		{
			"buffer":0,
			"byteLength":8663,
			"byteOffset":593976
		},
		{
			"buffer":0,
			"byteLength":12396,
			"byteOffset":602640,
			"target":34962
		},
		{
			"buffer":0,
			"byteLength":12396,
			"byteOffset":615036,
			"target":34962
		},
		{
			"buffer":0,
			"byteLength":8264,
			"byteOffset":627432,
			"target":34962
		},
		{
			"buffer":0,
			"byteLength":5316,
			"byteOffset":635696,
			"target":34963
		}
	],
	"samplers":[
		{
			"magFilter":9728,
			"minFilter":9984
		}
	],
	"buffers":[
		{
			"byteLength":641012,
			"uri":"data:application/octet-stream;base64,"
		}
	]
}
