{
	"asset":{
		"generator":"Khronos glTF Blender I/O v3.6.28",
		"version":"2.0"
	},
	"scene":0,
	"scenes":[
		{
			"name":"Scene",
			"nodes":[
				0,
				1,
				2,
				3,
				4
			]
		}
	],
	"nodes":[
		{
			"mesh":0,
			"name":"NES_Body"
		},
		{
			"mesh":1,
			"name":"NES_Body.001",
			"rotation":[
				0,
				0,
				-0.018744980916380882,
				0.9998242855072021
			],
			"translation":[
				0.9565482139587402,
				0.6805518865585327,
				0.17023003101348877
			]
		},
		{
			"mesh":2,
			"name":"Cube",
			"rotation":[
				0,
				1,
				0,
				7.549790126404332e-08
			],
			"scale":[
				1.4307711124420166,
				1.4307711124420166,
				1.4307711124420166
			],
			"translation":[
				0.21616560220718384,
				0.736883819103241,
				0.1763591468334198
			]
		},
		{
			"mesh":3,
			"name":"NES_Body.002",
			"translation":[
				-0.7577062845230103,
				0.731069803237915,
				0.02787517011165619
			]
		},
		{
			"mesh":4,
			"name":"Cube.001",
			"rotation":[
				0,
				1,
				0,
				7.549790126404332e-08
			],
			"scale":[
				1.4307711124420166,
				1.4307711124420166,
				1.4307711124420166
			],
			"translation":[
				0.7000073194503784,
				0.736883819103241,
				0.17635920643806458
			]
		}
	],
	"materials":[
		{
			"doubleSided":true,
			"name":"gc",
			"pbrMetallicRoughness":{
				"baseColorTexture":{
					"index":0
				},
				"metallicFactor":0,
				"roughnessFactor":0.5
			}
		}
	],
	"meshes":[
		{
			"name":"Cube",
			"primitives":[
				{
					"attributes":{
						"POSITION":0,
						"NORMAL":1,
						"TEXCOORD_0":2
					},
					"indices":3,
					"material":0
				}
			]
		},
		{
			"name":"Cube.001",
			"primitives":[
				{
					"attributes":{
						"POSITION":4,
						"NORMAL":5,
						"TEXCOORD_0":6
					},
					"indices":7,
					"material":0
				}
			]
		},
		{
			"name":"Cube.002",
			"primitives":[
				{
					"attributes":{
						"POSITION":8,
						"NORMAL":9,
						"TEXCOORD_0":10
					},
					"indices":11,
					"material":0
				}
			]
		},
		{
			"name":"Cube.006",
			"primitives":[
				{
					"attributes":{
						"POSITION":12,
						"NORMAL":13,
						"TEXCOORD_0":14
					},
					"indices":15,
					"material":0
				}
			]
		},
		{
			"name":"Cube.007",
			"primitives":[
				{
					"attributes":{
						"POSITION":16,
						"NORMAL":17,
						"TEXCOORD_0":18
					},
					"indices":11,
					"material":0
				}
			]
		}
	],
	"textures":[
		{
			"sampler":0,
			"source":0
		}
	],
	"images":[
		{
			"bufferView":4,
			"mimeType":"image/png",
			"name":"color_atlas"
		}
	],
	"accessors":[
		{
			"bufferView":0,
			"componentType":5126,
			"count":3664,
			"max":[
				1.2436293363571167,
				0.702560544013977,
				1.0147405862808228
			],
			"min":[
				-1.2436597347259521,
				-0.06750091165304184,
				-1.0147210359573364
			],
			"type":"VEC3"
		},
		{
			"bufferView":1,
			"componentType":5126,
			"count":3664,
			"type":"VEC3"
		},
		{
			"bufferView":2,
			"componentType":5126,
			"count":3664,
			"type":"VEC2"
		},
		{
			"bufferView":3,
			"componentType":5123,
			"count":7449,
			"type":"SCALAR"
		},
		{
			"bufferView":5,
			"componentType":5126,
			"count":64,
			"max":[
				0.27090781927108765,
				0.010211804881691933,
				0.5658817291259766
			],
			"min":[
				-7.224082946777344e-05,
				-0.2573676109313965,
				-0.5658817291259766
			],
			"type":"VEC3"
		},
		{
			"bufferView":6,
			"componentType":5126,
			"count":64,
			"type":"VEC3"
		},
		{
			"bufferView":7,
			"componentType":5126,
			"count":64,
			"type":"VEC2"
		},
		{
			"bufferView":8,
			"componentType":5123,
			"count":132,
			"type":"SCALAR"
		},
		{
			"bufferView":9,
			"componentType":5126,
			"count":2098,
			"max":[
				0.14701227843761444,
				0.02609327808022499,
				0.35024407505989075
			],
			"min":[
				-0.14625559747219086,
				-0.03435558080673218,
				-0.34240293502807617
			],
			"type":"VEC3"
		},
		{
			"bufferView":10,
			"componentType":5126,
			"count":2098,
			"type":"VEC3"
		},
		{
			"bufferView":11,
			"componentType":5126,
			"count":2098,
			"type":"VEC2"
		},
		{
			"bufferView":12,
			"componentType":5123,
			"count":3678,
			"type":"SCALAR"
		},
		{
			"bufferView":13,
			"componentType":5126,
			"count":186,
			"max":[
				0.6929233074188232,
				0.022683799266815186,
				0.6614810228347778
			],
			"min":[
				-0.3787503242492676,
				-0.025708258152008057,
				-0.3477877378463745
			],
			"type":"VEC3"
		},
		{
			"bufferView":14,
			"componentType":5126,
			"count":186,
			"type":"VEC3"
		},
		{
			"bufferView":15,
			"componentType":5126,
			"count":186,
			"type":"VEC2"
		},
		{
			"bufferView":16,
			"componentType":5123,
			"count":372,
			"type":"SCALAR"
		},
		{
			"bufferView":17,
			"componentType":5126,
			"count":2098,
			"max":[
				0.14701227843761444,
				0.02609327808022499,
				0.35024407505989075
			],
			"min":[
				-0.14625559747219086,
				-0.03435558080673218,
				-0.34240293502807617
			],
			"type":"VEC3"
		},
		{
			"bufferView":18,
			"componentType":5126,
			"count":2098,
			"type":"VEC3"
		},
		{
			"bufferView":19,
			"componentType":5126,
			"count":2098,
			"type":"VEC2"
		}
	],
	"bufferViews":[
		{
			"buffer":0,
			"byteLength":43968,
			"byteOffset":0,
			"target":34962
		},
		{
			"buffer":0,
			"byteLength":43968,
			"byteOffset":43968,
			"target":34962
		},
		{
			"buffer":0,
			"byteLength":29312,
			"byteOffset":87936,
			"target":34962
		},
		{
			"buffer":0,
			"byteLength":14898,
			"byteOffset":117248,
			"target":34963
		},
		{
			"buffer":0,
			"byteLength":8663,
			"byteOffset":132148
		},
		{
			"buffer":0,
			"byteLength":768,
			"byteOffset":140812,
			"target":34962
		},
		{
			"buffer":0,
			"byteLength":768,
			"byteOffset":141580,
			"target":34962
		},
		{
			"buffer":0,
			"byteLength":512,
			"byteOffset":142348,
			"target":34962
		},
		{
			"buffer":0,
			"byteLength":264,
			"byteOffset":142860,
			"target":34963
		},
		{
			"buffer":0,
			"byteLength":25176,
			"byteOffset":143124,
			"target":34962
		},
		{
			"buffer":0,
			"byteLength":25176,
			"byteOffset":168300,
			"target":34962
		},
		{
			"buffer":0,
			"byteLength":16784,
			"byteOffset":193476,
			"target":34962
		},
		{
			"buffer":0,
			"byteLength":7356,
			"byteOffset":210260,
			"target":34963
		},
		{
			"buffer":0,
			"byteLength":2232,
			"byteOffset":217616,
			"target":34962
		},
		{
			"buffer":0,
			"byteLength":2232,
			"byteOffset":219848,
			"target":34962
		},
		{
			"buffer":0,
			"byteLength":1488,
			"byteOffset":222080,
			"target":34962
		},
		{
			"buffer":0,
			"byteLength":744,
			"byteOffset":223568,
			"target":34963
		},
		{
			"buffer":0,
			"byteLength":25176,
			"byteOffset":224312,
			"target":34962
		},
		{
			"buffer":0,
			"byteLength":25176,
			"byteOffset":249488,
			"target":34962
		},
		{
			"buffer":0,
			"byteLength":16784,
			"byteOffset":274664,
			"target":34962
		}
	],
	"samplers":[
		{
			"magFilter":9728,
			"minFilter":9984
		}
	],
	"buffers":[
		{
			"byteLength":291448,
			"uri":"data:application/octet-stream;base64,"
		}
	]
}
